<?xml version="1.0" encoding="UTF-8"?>
<svg version="1.1" xmlns="http://www.w3.org/2000/svg" viewBox="0 0 500 500" width="500" height="500">
  <!-- Идеально круглый синий фон (без белых углов) -->
  <circle cx="250" cy="250" r="240" fill="#0367FC"/>
  
  <!-- Белая деталь (S и подставка) -->
  <path d="M0 0 C0.76570312 0.59039062 1.53140625 1.18078125 2.3203125 1.7890625 C17.82087128 14.48115767 28.20831027 35.34185875 30.22314453 55.19921875 C31.04872347 67.06271047 29.61072149 75.97486805 21.875 85.3125 C14.55202352 92.99800007 6.5047041 96.02273352 -3.9765625 96.29296875 C-15.38098335 96.39371452 -23.49145189 94.53778804 -31.96484375 86.36328125 C-38.66875574 78.57850821 -40.87582391 69.55043314 -42.62036133 59.67456055 C-44.165968 51.06434382 -47.36711006 46.16960095 -53.875 40.3125 C-61.16662832 35.80884721 -70.68998441 35.78524301 -78.8515625 37.65234375 C-86.44305408 40.32427357 -90.14798901 44.54291282 -93.875 51.5 C-96.68675245 60.15413629 -96.22839485 70.66799215 -92.3046875 78.8671875 C-82.63100294 94.68105507 -59.8889618 101.27422704 -43.83886719 108.40429688 C-26.04702852 116.32535899 -9.15819889 124.62508621 6 137 C6.93328125 137.74507812 7.8665625 138.49015625 8.828125 139.2578125 C20.54631356 149.1757207 27.81433824 161.2821243 32 176 C32.31710937 177.02222656 32.63421875 178.04445313 32.9609375 179.09765625 C38.2780186 198.39036795 35.29495092 221.02313974 25.6015625 238.49609375 C22.99536219 242.57066545 20.11769705 246.30761225 17 250 C16.34644531 250.87011719 16.34644531 250.87011719 15.6796875 251.7578125 C8.15243164 261.448591 -2.91786495 268.16791379 -14 273 C-15.15113281 273.52464844 -16.30226563 274.04929687 -17.48828125 274.58984375 C-28.16242393 279.28362009 -39.29129256 282 -51 282 C-51 292.56 -51 303.12 -51 314 C-47.0503125 313.95359375 -43.100625 313.9071875 -39.03125 313.859375 C-35.19207035 313.82815079 -31.35290503 313.80387915 -27.51367188 313.78027344 C-24.85189753 313.76246351 -22.19098972 313.73293715 -19.52929688 313.69824219 C-15.6965042 313.64954452 -11.86429637 313.62698884 -8.03125 313.609375 C-6.25578796 313.57840729 -6.25578796 313.57840729 -4.44445801 313.54681396 C2.98759889 313.54481014 8.95314349 314.22126645 14.55041504 319.44769287 C18.68022403 324.0694227 19.37246132 327.7325915 19.28125 333.84375 C18.61989878 338.91410936 16.18808532 342.81191468 12.625 346.375 C7.80521177 349.35867843 3.37185773 350.24978939 -2.24838257 350.26742554 C-3.48194992 350.27595551 -4.71551727 350.28448547 -5.98646545 350.29327393 C-7.34042371 350.29257501 -8.69438187 350.29165201 -10.04833984 350.29052734 C-11.4845057 350.29651643 -12.92066834 350.30332286 -14.35682678 350.31088257 C-18.24739774 350.32851013 -22.13788065 350.33323655 -26.02848768 350.33451414 C-28.4618378 350.33593803 -30.8951657 350.3402121 -33.32851028 350.34550858 C-41.82514105 350.36399743 -50.32170916 350.37218054 -58.81835938 350.37060547 C-66.72665372 350.36940406 -74.63467515 350.39050908 -82.54290044 350.4220928 C-89.34310318 350.44827929 -96.1432169 350.45897179 -102.94346964 350.45769465 C-107.00032763 350.45718575 -111.0569429 350.46282874 -115.11375046 350.48405075 C-118.93061458 350.50347362 -122.74700542 350.50353038 -126.56388664 350.48901749 C-127.96023821 350.48693334 -129.35661973 350.49160677 -130.75292015 350.5037384 C-138.60090479 350.56747924 -144.3351101 350.33794424 -151 346 C-155.2405132 341.7594868 -156.71977763 337.52200136 -157.375 331.625 C-156.77611811 325.83580836 -154.72103951 321.63498753 -150.5 317.625 C-146.20031164 314.83020257 -143.51513535 313.74993303 -138.31347656 313.77294922 C-137.17259583 313.77310028 -136.03171509 313.77325134 -134.85626221 313.77340698 C-133.01702179 313.78889084 -133.01702179 313.78889084 -131.140625 313.8046875 C-129.88111023 313.8075174 -128.62159546 313.81034729 -127.32391357 313.81326294 C-123.98326098 313.82255879 -120.64288331 313.84051417 -117.30230713 313.8626709 C-113.89036472 313.88316792 -110.47839301 313.89238262 -107.06640625 313.90234375 C-100.37744964 313.92269967 -93.68897361 313.96184996 -87 314 C-87 303.44 -87 292.88 -87 282 C-90.465 281.6596875 -90.465 281.6596875 -94 281.3125 C-116.4639993 278.64575222 -140.33449496 267.63869399 -155 250 C-165.87384826 235.77889758 -174.08869269 219.09920774 -173.390625 200.75 C-172.06749971 191.43519796 -167.22442823 183.31884624 -160 177.38671875 C-150.95476118 171.11511761 -140.76154558 169.79751885 -130 171 C-120.07288083 173.40624736 -111.89223994 178.00569519 -106.375 186.75 C-103.93890317 191.46739153 -102.57604158 196.4960371 -101.0625 201.5625 C-99.05318015 208.25082051 -97.27099571 214.1273163 -92 219 C-91.47792969 219.48339844 -90.95585937 219.96679688 -90.41796875 220.46484375 C-83.15043126 226.33674172 -74.36273757 227.58130754 -65.25390625 227.35546875 C-57.83443516 226.54493829 -51.55559252 224.01795454 -46 219 C-45.34 219 -44.68 219 -44 219 C-43.31653318 217.34015202 -42.65411685 215.67163195 -42 214 C-41.62875 213.154375 -41.2575 212.30875 -40.875 211.4375 C-38.86950682 203.55877679 -39.01930587 195.21092952 -43 188 C-52.27733192 173.63509896 -73.77668476 167.10179633 -88.67578125 160.4609375 C-117.1027138 147.78555164 -148.05992102 133.03335404 -162.3125 103.6875 C-162.63839111 103.02468018 -162.96428223 102.36186035 -163.30004883 101.67895508 C-168.39159972 90.59625323 -169.53640937 79.26217007 -169.4375 67.1875 C-169.43379395 66.53013855 -169.43008789 65.8727771 -169.42626953 65.19549561 C-169.24220081 42.22943633 -161.64865906 22.27454316 -145.75 5.375 C-131.78602443 -7.77310284 -113.84575835 -17.19002719 -95 -21 C-94.16210938 -21.185625 -93.32421875 -21.37125 -92.4609375 -21.5625 C-60.28286922 -27.67548395 -25.59816708 -20.6911702 0 0 Z" fill="#FFFFFF" transform="translate(319,88)"/>
</svg>
